# xmcd
#
# Track frame offsets:
#	150
#	11932
#	23952
#	37470
#	50922
#	63850
#	76237
#	86812
#	99025
#	112285
#	124150
#	137155
#	148975
#	160780
#	169547
#	182507
#	193525
#	203027
#	218230
#	229060
#
# Disc length: 3166 seconds
#
# Revision: 1
# Processed by: cddbd v1.4PL0 Copyright (c) Steve Scherf et al.
# Submitted via: audiograbber 1.80
#
DISCID=240c5c14
DTITLE=Merle Travis - The Best of Merle Travis 1946-1953
DYEAR=1900
DGENRE=
TTITLE0=Cincinnatti Lou
TTITLE1=No Vacancy
TTITLE2=Divorce ME C.O.D.
TTITLE3=So Round, So Firm, So Fully Packed
TTITLE4=Sixteen Tons
TTITLE5=Steele Guitar Rag
TTITLE6=Blue Yodel # 1 T For Texas
TTITLE7=Any Old Time
TTITLE8=Three Times Seven
TTITLE9=Kentucky Means Paradise
TTITLE10=Sweet Temptation
TTITLE11=Fat Gal
TTITLE12=Dry Bread
TTITLE13=Cannon Ball Rag
TTITLE14=Lawdy, What a Gal
TTITLE15=Guitar Rag
TTITLE16=Deep South
TTITLE17=Re-Enlistment Blues
TTITLE18=Kinfolks in Carolina
TTITLE19=I'll See you in My Dreams
EXTD=Subtitled Sweet Temptations 1946-1953
EXTT0=
EXTT1=
EXTT2=
EXTT3=
EXTT4=
EXTT5=
EXTT6=
EXTT7=
EXTT8=
EXTT9=
EXTT10=
EXTT11=
EXTT12=
EXTT13=
EXTT14=
EXTT15=
EXTT16=
EXTT17=
EXTT18=
EXTT19=
PLAYORDER=
